# xmcd CD database file
#
# Track frame offsets:
#	150
#	12855
#	29617
#	44692
#
# Disc length: 803 seconds
#
# Revision: 0
# Processed by: cddbd v1.5.1PL0 Copyright (c) Steve Scherf et al.
# Submitted via: CDex 1.51
#
DISCID=2e032104
DTITLE=接吻大魔王 - 浪花ロックシテー
DYEAR=1996
DGENRE=Hard Rock
TTITLE0=浪花ロケンロー
TTITLE1=浪花ロックシテー
TTITLE2=らぶがん
TTITLE3=哀しい女やね
EXTD=YEAR: 1996
EXTT0=
EXTT1=
EXTT2=
EXTT3=
PLAYORDER=
